<?xml version="1.0" encoding="utf-8"?>
<!-- Generator: Adobe Illustrator 23.0.2, SVG Export Plug-In . SVG Version: 6.00 Build 0)  -->
<svg version="1.1" id="Layer_1" xmlns="http://www.w3.org/2000/svg" xmlns:xlink="http://www.w3.org/1999/xlink" x="0px" y="0px"
	 viewBox="0 0 102 100" style="enable-background:new 0 0 102 100;" xml:space="preserve">
<style type="text/css">
	.st0{fill:#FFFFFF;}
</style>
<path class="st0" d="M51,96.5C25.4,96.5,4.5,75.6,4.5,50C4.5,24.4,25.4,3.5,51,3.5S97.5,24.4,97.5,50C97.5,75.6,76.6,96.5,51,96.5"
	/>
<path d="M51,4c25.4,0,46,20.6,46,46c0,25.4-20.6,46-46,46C25.6,96,5,75.4,5,50C5,24.6,25.6,4,51,4 M51,3C25,3,4,24,4,50
	c0,26,21,47,47,47s47-21,47-47C98,24,77,3,51,3"/>
<path class="st0" d="M51,62.2c-16,0-29.1-13-29.1-29.1C21.9,17,35,4,51,4s29.1,13,29.1,29.1C80.1,49.1,67,62.2,51,62.2"/>
<path d="M51,4.5c15.8,0,28.6,12.8,28.6,28.6c0,15.8-12.8,28.6-28.6,28.6S22.4,48.8,22.4,33.1C22.4,17.3,35.2,4.5,51,4.5 M51,3.5
	c-16.3,0-29.6,13.2-29.6,29.6c0,16.3,13.2,29.6,29.6,29.6s29.6-13.2,29.6-29.6C80.6,16.7,67.3,3.5,51,3.5"/>
<path class="st0" d="M51,38.5c-9.3,0-16.9-7.6-16.9-16.9c0-9.3,7.6-16.9,16.9-16.9s16.9,7.6,16.9,16.9C67.9,30.9,60.3,38.5,51,38.5"
	/>
<path d="M51,5.2c9.1,0,16.4,7.4,16.4,16.4C67.4,30.6,60.1,38,51,38c-9.1,0-16.4-7.4-16.4-16.4C34.6,12.5,41.9,5.2,51,5.2 M51,4.2
	c-9.6,0-17.4,7.8-17.4,17.4S41.4,39,51,39s17.4-7.8,17.4-17.4S60.6,4.2,51,4.2"/>
<path class="st0" d="M51,33.5c-6.6,0-11.9-5.3-11.9-11.9C39.1,15,44.4,9.7,51,9.7c6.6,0,11.9,5.3,11.9,11.9
	C62.9,28.2,57.6,33.5,51,33.5"/>
<path d="M51,10.2c6.3,0,11.4,5.1,11.4,11.4C62.4,27.9,57.3,33,51,33s-11.4-5.1-11.4-11.4C39.6,15.3,44.7,10.2,51,10.2 M51,9.2
	c-6.9,0-12.4,5.6-12.4,12.4S44.1,34,51,34c6.9,0,12.4-5.6,12.4-12.4S57.9,9.2,51,9.2"/>
<path class="st0" d="M51,19.1c-2.5,0-4.5-2-4.5-4.5c0-2.5,2-4.5,4.5-4.5c2.5,0,4.5,2,4.5,4.5C55.5,17.1,53.5,19.1,51,19.1"/>
<path d="M51,10.6c2.2,0,4,1.8,4,4s-1.8,4-4,4c-2.2,0-4-1.8-4-4S48.8,10.6,51,10.6 M51,9.6c-2.8,0-5,2.2-5,5s2.2,5,5,5
	c2.8,0,5-2.2,5-5S53.8,9.6,51,9.6"/>
</svg>
